<?xml version="1.0" standalone="no"?>
<!DOCTYPE svg PUBLIC "-//W3C//DTD SVG 20010904//EN"
 "http://www.w3.org/TR/2001/REC-SVG-20010904/DTD/svg10.dtd">
<svg version="1.0" xmlns="http://www.w3.org/2000/svg"
 width="512.000000pt" height="512.000000pt" viewBox="0 0 512.000000 512.000000"
 preserveAspectRatio="xMidYMid meet">
<metadata>
Created by potrace 1.11, written by Peter Selinger 2001-2013
</metadata>
<g transform="translate(0.000000,512.000000) scale(0.100000,-0.100000)"
fill="#000000" stroke="none">
<path d="M2550 4930 c0 -5 5 -10 11 -10 5 0 7 5 4 10 -3 6 -8 10 -11 10 -2 0
-4 -4 -4 -10z"/>
<path d="M2542 4798 c-3 -127 -10 -345 -16 -451 -4 -88 -2 -95 33 -102 16 -3
20 3 23 36 2 21 1 39 -2 39 -5 0 -10 175 -13 447 -2 148 -21 171 -25 31z"/>
<path d="M1946 4732 c7 -4 19 -29 27 -57 8 -27 26 -80 40 -117 15 -38 24 -68
20 -68 -3 0 1 -7 8 -17 8 -9 12 -17 10 -17 -2 -1 4 -26 14 -56 11 -30 20 -57
20 -60 0 -3 18 -57 40 -120 22 -63 38 -118 37 -122 -4 -14 20 -8 43 11 13 10
21 22 16 27 -4 5 -16 29 -26 54 -10 25 -27 65 -38 90 -10 25 -25 59 -32 75 -7
17 -24 56 -39 88 -14 32 -26 59 -26 62 0 2 -5 16 -12 32 -6 15 -12 30 -13 33
-1 3 -9 21 -18 41 -9 20 -17 42 -19 50 -2 8 -5 16 -8 19 -3 3 -11 17 -17 33
-7 15 -18 27 -25 27 -9 0 -10 -2 -2 -8z"/>
<path d="M3121 4688 c-5 -13 -22 -54 -38 -93 -17 -38 -47 -113 -69 -165 -21
-52 -41 -97 -45 -100 -3 -3 -8 -14 -11 -25 -3 -11 -22 -57 -41 -102 -35 -79
-35 -82 -17 -98 17 -16 62 -14 47 2 -4 3 -3 11 2 17 6 6 11 23 13 36 2 14 6
30 9 35 8 13 100 293 105 319 2 10 7 23 12 30 5 6 15 34 22 61 7 28 17 56 23
63 5 6 6 12 2 12 -4 0 -2 7 5 15 9 11 9 15 1 15 -6 0 -15 -10 -20 -22z"/>
<path d="M332 4524 c-36 -39 -43 -99 -26 -219 3 -22 6 -53 8 -70 2 -16 5 -30
6 -30 1 0 3 -11 6 -25 2 -14 7 -32 11 -40 3 -8 7 -17 8 -20 7 -30 30 -88 38
-97 5 -7 7 -13 4 -13 -3 0 4 -24 17 -52 12 -29 26 -62 30 -73 7 -20 7 -20 18
0 12 20 19 245 8 245 -3 0 -6 8 -7 18 -1 16 -5 37 -17 90 -3 12 -7 26 -10 30
-3 5 -8 24 -11 42 -3 19 -10 39 -15 46 -6 6 -7 13 -5 16 3 3 1 18 -6 34 -11
29 -15 46 -25 94 -7 34 -16 41 -32 24z"/>
<path d="M4735 4528 c-2 -7 -11 -40 -20 -73 -18 -69 -19 -71 -40 -145 -24 -83
-24 -85 -42 -185 -6 -38 -8 -176 -2 -222 4 -28 29 -40 29 -13 0 10 5 22 10 25
6 4 8 10 5 15 -3 5 -1 11 5 15 6 4 8 11 5 16 -4 5 -2 9 3 9 5 0 12 10 15 23 5
20 39 120 54 157 6 16 15 64 16 93 1 9 4 17 7 17 3 0 6 15 7 33 1 17 3 62 6
99 3 58 0 73 -20 108 -26 43 -31 47 -38 28z"/>
<path d="M107 4197 c-17 -46 114 -369 222 -547 11 -19 24 -42 28 -50 3 -8 17
-29 30 -46 12 -17 21 -33 19 -35 -2 -2 7 -15 21 -29 l24 -25 -5 35 c-11 71
-17 105 -23 120 -3 8 -7 18 -8 23 -2 4 -4 10 -5 15 -1 4 -3 12 -4 17 -1 6 -9
27 -19 49 -9 21 -17 42 -17 47 0 32 -179 346 -221 389 -9 8 -20 23 -26 34 -9
16 -11 16 -16 3z"/>
<path d="M4972 4206 c3 -4 -1 -16 -10 -25 -53 -56 -121 -159 -181 -278 -31
-63 -91 -206 -96 -233 -2 -8 -4 -16 -5 -17 -2 -2 -3 -6 -4 -10 -1 -5 -6 -19
-11 -33 -4 -14 -9 -36 -11 -50 -1 -14 -3 -25 -4 -25 -1 0 -3 -10 -4 -22 -4
-37 9 -45 25 -16 8 16 17 33 22 38 28 37 54 84 49 89 -3 3 0 6 6 6 7 0 12 6
12 13 0 7 9 23 20 35 11 12 20 24 20 27 0 3 22 52 49 109 47 96 74 157 72 164
-1 1 5 15 13 31 8 15 17 39 20 52 2 13 9 37 15 52 19 48 22 85 9 93 -7 4 -10
4 -6 0z"/>
<path d="M616 4095 c-26 -28 -44 -100 -52 -206 -3 -41 -6 -78 -5 -84 5 -88 23
-235 36 -285 1 -3 7 -23 13 -45 6 -22 12 -44 13 -50 2 -20 20 -45 31 -45 6 0
9 3 5 6 -3 3 -1 18 5 33 12 32 19 70 21 122 1 21 4 39 7 39 3 0 5 35 5 78 0
42 3 89 7 105 3 15 4 27 0 27 -4 0 -8 28 -9 63 -4 84 -8 135 -17 177 -9 42
-14 72 -15 83 -2 14 -22 6 -45 -18z"/>
<path d="M4426 4092 c-7 -34 -16 -87 -22 -132 -10 -67 -11 -345 -2 -357 5 -7
5 -14 -2 -18 -6 -3 -7 -11 -3 -18 4 -6 8 -24 10 -41 2 -16 5 -40 8 -53 3 -12
7 -35 11 -50 6 -34 12 -43 26 -43 6 0 8 3 5 7 -4 3 -2 12 4 20 6 7 8 13 5 13
-4 0 -1 10 6 23 7 12 11 25 10 28 0 4 3 22 9 40 46 159 48 445 3 554 -20 51
-60 66 -68 27z"/>
<path d="M1510 4085 c0 -5 92 -100 205 -212 l205 -204 16 35 17 35 -39 35
c-21 20 -45 36 -52 36 -7 0 -10 5 -7 10 3 6 1 10 -5 10 -7 0 -24 10 -39 23
-15 12 -42 33 -61 47 -18 14 -38 30 -44 35 -6 6 -29 23 -51 40 -37 27 -70 54
-99 80 -29 26 -46 37 -46 30z"/>
<path d="M3584 4077 c-11 -7 -27 -17 -35 -24 -54 -46 -71 -60 -95 -78 -16 -11
-35 -27 -44 -35 -9 -8 -34 -27 -55 -42 -22 -15 -52 -39 -67 -53 -15 -14 -31
-25 -36 -25 -6 0 -12 -7 -16 -15 -3 -8 -12 -15 -21 -15 -8 0 -15 -4 -15 -9 0
-5 -9 -13 -20 -16 -11 -4 -18 -11 -15 -16 4 -5 1 -9 -5 -9 -8 0 10 -51 25 -68
2 -2 98 91 215 207 116 116 210 211 208 211 -2 -1 -12 -6 -24 -13z"/>
<path d="M2570 4046 c-3 -2 -28 -7 -55 -10 -28 -2 -71 -12 -95 -21 -25 -8 -49
-17 -55 -18 -5 -1 -12 -4 -15 -7 -3 -3 -24 -18 -47 -33 -57 -36 -132 -113
-175 -179 -39 -58 -84 -137 -87 -153 -1 -5 -9 -23 -16 -40 -15 -32 -51 -154
-59 -195 -2 -14 -5 -25 -6 -25 -1 0 -3 -13 -5 -30 -2 -16 -7 -59 -11 -95 -8
-73 -7 -225 1 -285 3 -22 7 -58 9 -80 2 -22 5 -40 6 -40 1 0 3 -7 5 -15 13
-70 53 -189 85 -257 37 -80 96 -175 112 -181 4 -2 8 -8 8 -14 0 -6 27 -35 60
-65 l59 -55 3 -96 3 -97 95 -1 c141 -3 134 -2 120 -19 -7 -8 -16 -13 -20 -10
-4 3 -11 -3 -14 -12 -4 -9 -2 -19 4 -23 7 -4 10 -20 7 -36 -4 -27 -5 -27 -12
-7 -8 26 -31 37 -42 20 -5 -8 -9 -3 -13 13 -4 17 -13 25 -28 26 -12 1 -23 -3
-23 -7 -1 -5 -2 -13 -3 -18 -2 -15 -16 -26 -16 -13 0 24 -25 11 -39 -19 -10
-22 -10 -34 -3 -41 8 -8 7 -15 -5 -24 -10 -6 -18 -24 -19 -40 -1 -29 18 -58
31 -46 4 4 1 -5 -5 -19 -16 -35 10 -80 40 -72 15 4 20 0 20 -14 0 -16 5 -19
25 -15 14 2 22 8 19 13 -3 5 0 9 5 9 17 0 7 -39 -14 -54 -17 -12 -18 -17 -6
-39 8 -14 11 -33 8 -41 -6 -15 -39 -17 -53 -3 -11 10 -48 -54 -51 -88 -7 -74
-7 -225 0 -225 5 0 6 -4 3 -9 -9 -13 41 -105 66 -120 17 -11 62 -15 181 -16
86 0 157 3 157 7 0 4 6 8 13 8 8 0 22 10 33 23 41 46 48 74 48 200 l1 122 -49
3 c-41 3 -47 6 -43 22 3 11 -1 21 -9 24 -8 3 -14 12 -14 20 0 10 -6 13 -16 9
-13 -5 -15 -2 -7 13 5 10 8 29 7 42 0 12 2 22 6 22 4 0 5 11 2 25 -3 18 0 25
12 25 9 0 16 -7 16 -15 0 -23 16 -18 28 10 6 14 18 25 27 25 11 0 13 7 9 30
-4 18 -1 36 6 45 10 13 10 19 -5 35 -23 26 -28 69 -9 77 8 3 14 16 14 29 0 13
4 24 9 24 5 0 7 12 4 28 -3 15 -6 36 -7 47 -1 23 -21 39 -36 30 -6 -3 -10 -1
-10 4 0 10 29 16 53 12 8 -1 9 11 11 116 1 61 5 75 25 97 14 14 30 26 38 26 7
0 13 3 13 8 0 4 12 21 28 38 51 56 148 194 136 194 -2 0 4 17 14 38 21 40 58
145 66 183 3 13 8 35 11 49 25 104 33 193 29 340 -1 74 -5 149 -9 165 -4 25
-21 105 -31 150 -16 78 -81 224 -138 310 -44 67 -154 185 -173 185 -7 0 -13 4
-13 9 0 20 -191 88 -211 75 -4 -2 -9 1 -11 7 -2 5 -6 8 -8 5z m84 -151 c121
-33 250 -161 324 -317 36 -76 74 -188 77 -228 1 -14 4 -31 8 -36 6 -11 21
-163 20 -214 -1 -69 -13 -186 -21 -215 -5 -16 -8 -38 -6 -47 1 -10 -1 -18 -5
-18 -4 0 -7 -10 -9 -23 -3 -43 -73 -200 -118 -269 -41 -61 -77 -100 -143 -157
-13 -12 -28 -21 -32 -21 -24 0 -35 -31 -33 -94 1 -36 -1 -67 -4 -67 -4 -1 -80
-3 -169 -4 -185 -2 -165 -14 -165 93 0 49 -3 55 -36 80 -56 42 -148 139 -166
175 -9 18 -28 52 -43 76 -14 24 -26 49 -27 55 -1 6 -4 16 -8 21 -8 14 -45 143
-52 183 -3 17 -9 47 -12 65 -16 77 -7 324 14 407 5 19 9 38 10 43 6 51 83 240
114 282 56 75 107 131 132 146 17 10 27 19 21 19 -12 0 88 51 130 66 34 12
155 11 199 -1z m41 -1856 c-28 -11 -65 -11 -65 0 0 13 19 18 54 13 27 -4 28
-6 11 -13z m51 -48 c20 -46 5 -92 -26 -84 -23 6 -35 55 -21 81 12 23 38 24 47
3z m-70 -116 c14 -12 11 -40 -5 -40 -18 0 -29 -23 -23 -51 2 -13 0 -24 -5 -24
-5 0 -10 -7 -10 -15 0 -8 5 -15 11 -15 6 0 5 -5 -2 -12 -8 -8 -15 -9 -20 -3
-11 15 -32 17 -32 2 0 -7 -13 -21 -30 -30 -28 -17 -29 -17 -40 2 -5 11 -10 27
-10 35 0 9 -5 16 -11 16 -5 0 -7 -4 -4 -10 3 -5 4 -10 1 -10 -2 0 -13 -3 -23
-7 -17 -7 -17 -6 -2 18 11 16 14 31 8 41 -6 11 -3 21 10 32 15 14 17 24 11 47
-8 27 -7 28 11 19 12 -7 19 -21 19 -40 0 -32 14 -40 24 -15 7 20 36 19 52 -2
9 -12 14 -14 15 -5 1 6 2 20 4 30 5 46 24 60 51 37z m-33 -226 c10 -16 -7 -79
-22 -79 -28 1 -49 63 -29 87 14 17 38 13 51 -8z m-73 -110 c0 -5 4 -8 9 -4 5
3 16 -2 24 -10 12 -11 17 -12 20 -2 4 9 6 9 6 0 1 -6 -3 -14 -9 -18 -5 -3 -7
-12 -4 -20 5 -12 -7 -15 -70 -13 -42 0 -76 5 -76 10 0 4 14 8 30 8 19 0 30 5
31 15 1 8 3 20 4 25 1 6 3 12 4 15 2 10 31 5 31 -6z m-123 -53 c0 -29 -32 -13
-33 16 -1 26 0 27 16 13 9 -8 17 -21 17 -29z m-59 2 c3 -13 -3 -18 -21 -18
-29 0 -37 7 -30 27 8 19 47 12 51 -9z m292 -8 c0 -5 -7 -10 -15 -10 -8 0 -15
5 -15 10 0 6 7 10 15 10 8 0 15 -4 15 -10z m-83 -143 c5 -3 15 -2 22 2 16 10
81 3 98 -11 9 -8 10 -14 3 -23 -8 -9 -8 -14 0 -17 7 -2 4 -13 -9 -29 -18 -23
-27 -26 -78 -25 -32 1 -63 5 -70 9 -6 4 -14 3 -18 -2 -8 -14 -131 -9 -146 6
-6 6 -12 29 -13 50 -1 35 1 38 29 43 37 6 171 4 182 -3z"/>
<path d="M808 3718 c-15 -29 -35 -78 -44 -108 -19 -58 -19 -60 -27 -100 -3
-14 -6 -25 -7 -25 -4 0 -12 -107 -13 -180 -1 -77 5 -141 18 -195 3 -14 8 -36
10 -50 7 -43 43 -134 54 -138 7 -2 11 0 10 5 -1 4 0 10 1 13 4 12 22 87 35
155 16 77 28 234 27 335 -1 139 -8 245 -16 258 -4 7 -3 12 3 12 7 0 7 8 2 23
-4 12 -6 28 -4 35 3 6 -2 12 -9 12 -8 0 -26 -24 -40 -52z"/>
<path d="M4233 3738 c-1 -18 -4 -89 -8 -158 -10 -171 -8 -249 9 -405 10 -89
42 -235 54 -247 10 -10 56 105 67 167 34 183 25 342 -26 505 -27 85 -68 170
-83 170 -6 0 -12 -15 -13 -32z"/>
<path d="M225 3693 c4 -13 8 -34 11 -49 25 -137 142 -361 272 -522 70 -85 76
-92 83 -92 8 0 2 34 -11 65 -4 11 -16 40 -25 65 -18 49 -86 192 -95 200 -3 3
-12 19 -20 35 -8 17 -21 36 -27 43 -7 7 -13 17 -13 22 0 5 -6 15 -12 22 -18
19 -98 136 -98 142 0 6 -8 16 -50 66 -20 24 -21 24 -15 3z"/>
<path d="M4765 3572 c-103 -153 -141 -218 -189 -317 -32 -68 -68 -165 -64
-175 1 -3 -4 -15 -11 -27 -10 -19 -9 -23 4 -23 8 0 15 3 15 8 0 4 16 25 35 47
19 22 35 43 35 46 0 4 13 22 30 40 16 19 30 37 30 41 0 4 6 13 13 20 18 19 77
116 77 128 0 6 5 10 10 10 6 0 10 8 10 18 0 10 5 23 11 29 24 24 101 265 90
280 -3 5 -46 -52 -96 -125z"/>
<path d="M504 3650 c9 -88 25 -191 32 -201 2 -4 6 -24 10 -45 3 -22 9 -52 14
-69 45 -152 62 -212 65 -227 2 -10 7 -24 12 -31 8 -13 11 -23 15 -52 2 -11 5
-22 8 -25 5 -5 28 -62 34 -85 5 -16 17 -47 34 -90 10 -21 16 -42 16 -45 -1 -3
6 -21 17 -41 10 -20 15 -39 12 -43 -4 -3 -1 -6 5 -6 7 0 12 -8 12 -18 0 -10 7
-28 16 -40 8 -12 12 -22 8 -22 -3 0 -2 -6 4 -12 6 -7 10 -15 10 -18 1 -7 21
-61 32 -85 45 -96 97 -225 92 -229 -3 -3 0 -6 6 -6 7 0 12 -4 12 -10 0 -28
225 -489 328 -670 35 -63 101 -176 147 -250 45 -74 88 -146 96 -159 8 -14 22
-34 31 -45 10 -10 15 -23 12 -28 -3 -4 -1 -8 4 -8 5 0 15 -12 23 -27 8 -16 16
-30 19 -33 3 -3 25 -36 50 -74 24 -38 51 -76 60 -84 8 -9 14 -18 13 -21 -1 -3
12 -26 28 -51 16 -25 34 -54 41 -65 30 -46 314 -442 329 -459 23 -25 41 -13
29 19 -5 14 -7 25 -3 25 3 0 -1 8 -9 18 -8 9 -21 33 -29 52 -14 36 -81 144
-121 194 -13 16 -25 34 -27 40 -2 6 -7 13 -10 16 -16 13 -71 90 -71 99 0 5 -4
11 -9 13 -9 4 -271 395 -271 406 0 4 -10 18 -23 32 -13 14 -23 27 -23 30 1 5
-115 199 -145 242 -11 15 -19 32 -19 37 0 5 -6 16 -12 23 -14 15 -17 20 -73
123 -21 39 -55 100 -76 137 -22 36 -39 71 -39 77 0 6 -5 11 -12 11 -6 0 -9 2
-6 5 3 3 -7 29 -23 58 -46 86 -109 217 -109 228 0 5 -4 9 -10 9 -5 0 -9 3 -8
8 1 4 -13 39 -31 77 -80 170 -191 422 -196 445 -2 8 -10 29 -19 45 -9 17 -16
35 -16 41 0 5 -8 28 -19 50 -32 67 -156 434 -162 479 0 6 -5 17 -10 26 -4 9
-10 27 -12 40 -3 13 -11 44 -18 69 -7 25 -14 52 -16 60 -28 161 -60 252 -49
140z"/>
<path d="M4575 3691 c-3 -5 -7 -22 -9 -38 -6 -38 -14 -76 -32 -148 -34 -140
-45 -179 -55 -191 -5 -6 -7 -13 -4 -16 5 -4 -81 -274 -106 -333 -7 -16 -13
-32 -13 -35 -2 -7 -23 -63 -48 -125 -11 -27 -21 -54 -23 -60 -3 -14 -17 -48
-54 -129 -17 -38 -31 -75 -31 -82 0 -8 -4 -14 -10 -14 -5 0 -10 -7 -10 -15 0
-8 -15 -46 -34 -85 -19 -39 -35 -72 -34 -73 0 -1 -27 -60 -61 -131 -34 -70
-61 -132 -61 -137 0 -5 -5 -9 -12 -9 -6 0 -9 -3 -5 -6 3 -3 -5 -25 -17 -47
-13 -23 -49 -91 -81 -152 -32 -60 -62 -115 -66 -121 -5 -6 -6 -14 -2 -17 3 -4
2 -7 -4 -7 -6 0 -13 -8 -17 -17 -5 -16 -25 -53 -51 -93 -5 -8 -10 -21 -12 -29
-1 -8 -6 -17 -10 -20 -5 -3 -18 -22 -30 -41 -106 -182 -169 -286 -175 -288 -5
-2 -8 -10 -8 -18 0 -8 -5 -14 -10 -14 -6 0 -9 -3 -8 -7 2 -5 -16 -36 -40 -70
-23 -34 -42 -67 -42 -73 0 -6 -4 -8 -10 -5 -5 3 -10 1 -10 -5 0 -14 -179 -284
-192 -288 -4 -2 -8 -10 -8 -18 0 -8 -4 -14 -9 -14 -5 0 -14 -13 -21 -30 -7
-16 -15 -30 -19 -30 -3 0 -17 -17 -31 -38 -14 -20 -27 -39 -30 -42 -15 -15
-50 -71 -50 -80 0 -6 -4 -8 -10 -5 -5 3 -10 -1 -10 -9 0 -8 -6 -21 -12 -28
-13 -13 -72 -132 -70 -142 0 -3 -3 -19 -8 -35 -12 -44 12 -30 57 33 21 28 41
56 46 61 4 6 30 42 58 80 27 39 57 80 67 91 9 12 24 32 32 44 8 12 27 40 43
61 15 21 27 43 27 49 0 5 4 10 8 10 4 0 16 15 27 33 10 17 62 97 114 177 52
80 94 148 93 153 -1 4 2 7 8 7 5 0 10 7 10 15 0 8 5 15 10 15 6 0 10 7 10 15
0 8 5 15 10 15 6 0 10 7 10 15 0 8 5 15 12 15 6 0 9 3 6 6 -5 5 46 91 71 120
5 7 7 15 4 18 -4 3 -1 6 5 6 7 0 12 4 12 9 0 10 82 147 100 169 6 6 8 12 5 12
-4 0 3 13 14 29 12 16 21 34 21 39 0 6 3 12 8 14 4 2 18 27 31 56 14 28 29 52
34 52 6 0 7 3 4 7 -4 3 0 14 9 24 8 9 16 23 18 31 1 8 11 29 22 48 26 45 83
164 149 309 95 212 102 226 115 256 7 17 15 39 17 49 2 11 11 28 20 38 9 10
13 18 8 18 -4 0 -3 6 2 13 5 6 25 50 43 97 19 47 40 95 48 108 8 12 12 22 8
22 -3 0 5 25 19 55 13 30 21 55 18 55 -3 0 -1 6 4 13 9 11 47 113 48 129 0 3
3 10 8 14 4 4 7 14 7 23 0 9 6 28 14 43 11 21 27 71 31 98 0 3 4 11 8 18 5 6
5 12 1 12 -3 0 -2 6 4 13 6 6 13 30 17 52 4 22 11 45 15 50 4 6 6 18 5 28 -2
9 2 17 8 17 5 0 8 3 5 6 -3 3 1 33 9 67 8 34 16 76 19 92 2 17 6 41 9 55 8 40
16 140 11 140 -3 0 -7 -4 -11 -9z"/>
<path d="M1034 3399 c-32 -49 -84 -183 -87 -221 -1 -10 -4 -18 -7 -18 -3 0 -5
-10 -6 -22 0 -13 -4 -39 -8 -58 -4 -19 -9 -98 -10 -175 -3 -141 7 -236 38
-350 1 -5 9 -26 17 -45 l15 -35 19 29 c11 16 21 34 22 40 2 6 11 43 22 82 11
39 22 86 25 105 20 117 26 374 11 475 -3 27 -8 63 -10 79 -2 17 -4 30 -5 30
-1 0 -3 11 -5 25 -2 14 -8 36 -13 49 -7 19 -11 22 -18 10z"/>
<path d="M4039 3406 c-1 -3 -2 -14 -3 -23 -1 -10 -5 -31 -9 -48 -37 -154 -41
-402 -11 -595 3 -19 6 -43 6 -52 -1 -10 4 -18 9 -18 6 0 7 -4 4 -10 -13 -20
53 -180 74 -180 8 0 12 3 8 6 -3 4 1 23 9 43 9 20 18 47 20 61 3 14 7 32 10
40 25 64 24 387 -1 505 -4 17 -8 35 -9 40 -10 46 -42 138 -62 176 -22 44 -42
68 -45 55z"/>
<path d="M210 3265 c0 -31 129 -254 152 -263 4 -2 8 -8 8 -14 0 -18 230 -278
246 -278 3 0 11 -6 18 -12 29 -28 66 -58 66 -53 0 3 11 -2 25 -11 24 -16 25
-15 25 6 0 24 -58 153 -72 158 -4 2 -8 9 -8 16 0 14 -50 87 -89 129 -13 15
-22 27 -19 27 24 0 -226 249 -278 278 -39 21 -74 29 -74 17z"/>
<path d="M4817 3254 c-41 -22 -73 -50 -155 -134 -105 -108 -122 -126 -122
-133 0 -6 -30 -44 -57 -73 -7 -7 -13 -15 -13 -19 0 -3 -11 -21 -24 -38 -25
-33 -82 -135 -86 -152 -1 -5 -7 -21 -12 -34 -15 -41 -3 -54 32 -33 65 40 133
103 225 207 33 37 68 76 78 86 9 11 15 19 12 19 -3 0 3 9 13 20 11 12 37 46
58 78 21 31 43 60 49 64 5 4 6 8 1 8 -5 0 -2 8 7 18 16 17 32 53 47 105 10 32
-7 36 -53 11z"/>
<path d="M1727 3204 c-4 -4 -26 -9 -49 -10 -24 -2 -83 -6 -133 -9 -49 -4 -107
-8 -127 -8 -37 -1 -55 -22 -20 -24 9 -1 58 -3 109 -6 51 -3 97 -8 102 -11 5
-4 13 -2 16 4 4 7 11 7 18 2 11 -8 45 -12 132 -16 17 -1 35 -5 41 -9 18 -11
29 23 25 77 -1 15 -65 17 -88 3 -6 -4 -13 -2 -15 4 -2 5 -7 7 -11 3z"/>
<path d="M3266 3186 c-6 -31 -3 -66 6 -67 13 -2 48 -1 51 1 2 2 47 6 148 13
31 2 62 7 68 11 6 4 11 1 11 -6 0 -8 3 -9 8 -3 4 6 46 10 93 10 65 0 85 3 82
12 -3 7 -9 10 -14 7 -5 -3 -9 0 -9 7 0 8 -5 7 -17 -2 -9 -8 -14 -9 -10 -2 5 8
-10 11 -53 10 -33 -1 -60 0 -60 3 0 3 -15 5 -32 6 -113 4 -198 10 -198 14 0 3
-16 6 -35 6 -29 1 -36 -3 -39 -20z"/>
<path d="M1357 3173 c-10 -9 -9 -23 1 -23 5 0 9 7 9 15 0 17 -1 18 -10 8z"/>
<path d="M1243 2863 c-7 -2 -13 -11 -13 -19 0 -8 -4 -14 -9 -14 -9 0 -54 -113
-54 -136 0 -8 -3 -14 -7 -14 -3 0 -6 -8 -6 -17 -1 -10 -5 -47 -9 -83 -18 -142
-5 -334 32 -495 4 -16 8 -36 8 -44 1 -33 22 -18 38 26 9 27 17 50 16 53 0 3 5
19 11 35 26 66 31 114 34 293 1 83 -1 152 -4 152 -3 0 -5 17 -6 38 0 20 -4 69
-8 107 -4 39 -8 82 -9 98 0 15 -1 27 -1 26 -1 0 -7 -3 -13 -6z"/>
<path d="M3834 2848 c-1 -31 -13 -163 -21 -218 -19 -133 -2 -426 28 -483 6 -9
7 -22 4 -27 -3 -6 -2 -10 4 -10 5 0 13 -15 16 -32 4 -18 13 -41 20 -51 11 -16
13 -14 20 20 5 21 9 43 11 48 1 6 5 27 9 49 4 21 9 48 11 60 21 95 22 400 2
412 -5 3 -6 9 -3 13 8 14 -27 134 -56 185 -31 57 -45 67 -45 34z"/>
<path d="M447 2722 c46 -111 98 -194 227 -362 113 -148 251 -294 289 -306 9
-3 15 -9 12 -14 -3 -4 2 -10 10 -14 32 -12 27 15 -23 124 -9 19 -21 38 -26 42
-6 4 -8 8 -3 8 9 0 -112 180 -167 245 -22 28 -48 58 -56 69 -27 33 -172 176
-178 176 -4 0 -20 13 -37 28 -16 15 -38 31 -47 34 -15 6 -15 4 -1 -30z"/>
<path d="M4610 2732 c-89 -68 -270 -250 -270 -272 0 -6 -4 -10 -8 -10 -5 0
-33 -35 -62 -77 -30 -43 -56 -80 -60 -83 -10 -9 -78 -128 -85 -149 -3 -12 -11
-21 -16 -21 -6 0 -8 -4 -5 -8 3 -5 -1 -26 -9 -48 -7 -21 -12 -41 -10 -43 11
-10 195 160 195 180 0 6 5 7 10 4 6 -3 10 -1 10 4 0 6 8 19 18 29 9 10 33 37
52 61 19 24 41 49 48 56 6 8 12 16 12 19 0 2 26 40 58 83 58 80 64 89 104 158
26 44 62 134 56 140 -2 2 -19 -9 -38 -23z"/>
<path d="M1365 2503 c1 -10 -1 -25 -5 -33 -7 -14 -12 -44 -27 -185 -11 -99 -2
-372 13 -396 2 -4 6 -20 8 -36 9 -60 27 -131 43 -173 8 -18 7 -18 17 -58 12
-50 30 -33 43 39 13 74 7 529 -7 529 -3 0 -6 19 -7 43 -2 62 -27 194 -43 232
-4 11 -11 28 -14 38 -3 9 -10 17 -15 17 -5 0 -8 -8 -6 -17z"/>
<path d="M3707 2513 c-7 -12 -27 -78 -32 -105 -3 -13 -7 -34 -10 -48 -9 -44
-19 -124 -18 -147 1 -13 -2 -23 -6 -23 -8 0 -13 -101 -14 -300 0 -138 6 -265
13 -265 1 0 3 -8 5 -18 2 -11 5 -21 8 -23 4 -4 47 104 46 116 0 3 4 18 10 33
6 15 13 42 16 60 3 18 8 39 10 47 22 76 41 395 26 425 -3 5 -6 27 -7 47 -1 20
-4 52 -8 70 -3 18 -9 53 -12 78 -6 45 -18 69 -27 53z"/>
<path d="M708 2184 c-4 -3 -3 -18 2 -33 32 -111 132 -256 276 -396 118 -115
155 -147 204 -172 19 -10 38 -22 42 -28 4 -5 10 -7 13 -3 9 9 -40 98 -94 172
-72 99 -195 245 -207 245 -6 1 -17 12 -24 26 -7 13 -17 22 -22 19 -4 -3 -8 -1
-8 4 0 13 -69 82 -82 82 -5 0 -6 5 -3 10 3 6 1 10 -4 10 -6 0 -27 16 -47 35
-39 38 -38 38 -46 29z"/>
<path d="M4217 2038 c-84 -84 -168 -172 -187 -196 -31 -39 -54 -67 -77 -97
-19 -23 -82 -123 -97 -152 -10 -20 -12 -34 -6 -38 6 -3 10 -1 10 4 0 6 6 11
14 11 26 0 140 92 244 196 57 57 101 104 98 104 -3 0 2 8 12 18 29 31 50 59
63 84 6 13 15 25 19 28 8 5 52 88 56 105 2 6 5 20 8 33 3 12 7 26 11 31 3 5 1
12 -5 16 -5 3 -79 -63 -163 -147z"/>
<path d="M1545 2150 c-17 -28 -25 -367 -11 -460 4 -25 9 -61 12 -80 8 -61 14
-97 28 -165 2 -11 9 -32 15 -47 6 -16 9 -28 6 -28 -2 0 2 -18 10 -40 8 -22 12
-40 8 -40 -3 0 0 -7 7 -15 7 -8 10 -15 6 -15 -4 0 0 -13 9 -30 22 -42 31 -38
41 18 4 26 9 56 11 67 15 77 -2 403 -22 435 -3 4 -7 25 -10 46 -3 22 -10 50
-15 64 -4 14 -23 81 -41 150 -36 143 -42 159 -54 140z"/>
<path d="M3525 2141 c-3 -11 -8 -30 -11 -43 -9 -39 -12 -53 -14 -53 -2 0 -8
-27 -15 -60 -3 -11 -18 -71 -34 -134 -31 -118 -35 -137 -47 -231 -11 -90 -7
-335 6 -335 1 0 3 -14 4 -30 3 -35 13 -55 27 -55 5 0 9 7 9 15 0 8 4 23 10 33
5 9 17 44 25 77 9 33 18 68 20 78 9 32 15 62 21 97 8 46 12 65 14 65 2 0 5 23
15 130 9 88 10 292 2 370 -2 28 -5 60 -6 73 -1 27 -17 29 -26 3z"/>
<path d="M957 1613 c-6 -6 40 -75 75 -113 10 -11 16 -20 14 -20 -8 0 194 -200
234 -233 19 -15 46 -36 59 -45 13 -9 45 -34 72 -54 27 -21 51 -33 54 -28 3 6
1 10 -4 10 -6 0 -11 6 -11 13 0 7 -9 23 -20 35 -11 12 -20 24 -20 28 0 5 -30
45 -85 114 -26 31 -134 139 -166 165 -49 40 -118 85 -128 85 -6 0 -11 5 -11
10 0 6 -6 10 -14 10 -8 0 -21 7 -29 15 -8 8 -17 11 -20 8z"/>
<path d="M4096 1597 c-53 -32 -152 -102 -158 -111 -4 -6 -8 -8 -8 -4 0 8 -105
-95 -155 -153 -39 -44 -129 -167 -145 -198 -12 -24 -6 -24 25 1 37 29 106 78
109 78 15 0 238 217 286 278 60 75 71 91 70 98 -1 4 4 11 12 15 10 7 10 9 -2
8 -8 0 -24 -6 -34 -12z"/>
</g>
</svg>
